<svg xmlns="http://www.w3.org/2000/svg" viewBox="0 0 1024 1024">
  <defs>
    <linearGradient id="bg" x1="120" y1="40" x2="900" y2="980" gradientUnits="userSpaceOnUse">
      <stop offset="0" stop-color="#70FFD2" stop-opacity="1"/>
      <stop offset="0.34" stop-color="#22D9A4" stop-opacity="1"/>
      <stop offset="0.72" stop-color="#08715E" stop-opacity="1"/>
      <stop offset="1" stop-color="#021915" stop-opacity="1"/>
    </linearGradient>
    <radialGradient id="glass" cx="35%" cy="18%" r="80%">
      <stop offset="0" stop-color="#FFFFFF" stop-opacity="0.38"/>
      <stop offset="0.3" stop-color="#DFFCF1" stop-opacity="0.18"/>
      <stop offset="1" stop-color="#0B2F2A" stop-opacity="0"/>
    </radialGradient>
    <linearGradient id="pitcher" x1="342" y1="232" x2="664" y2="792" gradientUnits="userSpaceOnUse">
      <stop offset="0" stop-color="#FFFFFF" stop-opacity="0.98"/>
      <stop offset="0.45" stop-color="#C9FFF0" stop-opacity="0.94"/>
      <stop offset="1" stop-color="#3DE3B0" stop-opacity="0.95"/>
    </linearGradient>
    <linearGradient id="inside" x1="370" y1="250" x2="614" y2="720" gradientUnits="userSpaceOnUse">
      <stop offset="0" stop-color="#123D37" stop-opacity="0.86"/>
      <stop offset="1" stop-color="#031512" stop-opacity="0.98"/>
    </linearGradient>
    <filter id="shadow" x="-20%" y="-20%" width="140%" height="150%">
      <feDropShadow dx="0" dy="26" stdDeviation="28" flood-color="#001411" flood-opacity="0.42"/>
      <feDropShadow dx="0" dy="2" stdDeviation="3" flood-color="#FFFFFF" flood-opacity="0.28"/>
    </filter>
    <clipPath id="squircle">
      <path d="M220 0H804C926 0 1024 98 1024 220V804C1024 926 926 1024 804 1024H220C98 1024 0 926 0 804V220C0 98 98 0 220 0Z"/>
    </clipPath>
  </defs>

  <path d="M220 0H804C926 0 1024 98 1024 220V804C1024 926 926 1024 804 1024H220C98 1024 0 926 0 804V220C0 98 98 0 220 0Z" fill="url(#bg)"/>
  <g clip-path="url(#squircle)">
    <path d="M72 84h880v360c-154-58-276-39-404 60-156 121-289 138-476 62Z" fill="url(#glass)"/>
    <path d="M128 776c198-104 369-102 768-7v210H128Z" fill="#061F1B" opacity="0.18"/>
    <g opacity="0.22" stroke="#FFFFFF" stroke-width="3" fill="none">
      <path d="M156 286c114-48 237-48 370 0s252 48 357 0"/>
      <path d="M150 360c120-38 246-37 379 3s250 40 343 0"/>
    </g>
  </g>

  <g filter="url(#shadow)">
    <path d="M348 239c56-58 169-68 257-22 62 32 87 78 70 122-19 50-87 71-166 58-59-10-104-32-134-66-23-26-47-53-27-92Z" fill="#EFFFF8" opacity="0.96"/>
    <path d="M377 307c68 57 162 74 247 40 20 150 58 277 4 397-31 69-87 111-157 111-73 0-127-45-154-118-42-114-4-242 60-430Z" fill="url(#pitcher)"/>
    <path d="M410 350c53 35 120 45 179 27 14 126 37 228 1 311-22 51-61 80-110 80-51 0-90-32-108-86-27-81 0-181 38-332Z" fill="url(#inside)"/>
    <path d="M383 307c-80 30-135 92-158 187" fill="none" stroke="#D9FFF3" stroke-width="42" stroke-linecap="round" opacity="0.82"/>
    <path d="M619 345c87 17 151 68 192 152" fill="none" stroke="#B8FFE9" stroke-width="34" stroke-linecap="round" opacity="0.72"/>
  </g>

  <g transform="translate(337 472)" stroke-linecap="round" stroke-linejoin="round">
    <rect x="0" y="0" width="350" height="230" rx="42" fill="#F8FFFC" opacity="0.18" stroke="#E6FFF6" stroke-width="10"/>
    <path d="M70 72h210M70 117h130M70 162h185" stroke="#EFFFF8" stroke-width="24" opacity="0.94"/>
    <path d="M249 146l38 38 66-86" stroke="#65FFD0" stroke-width="26" fill="none"/>
  </g>

  <g opacity="0.82">
    <circle cx="288" cy="316" r="16" fill="#EFFFF8"/>
    <circle cx="745" cy="308" r="13" fill="#D9FFF3"/>
    <circle cx="765" cy="687" r="18" fill="#8CFFD9"/>
    <circle cx="250" cy="714" r="12" fill="#D9FFF3"/>
  </g>
</svg>
